# xmcd
#
# Track frame offsets:
#	150
#	12515
#	25552
#	39832
#	52660
#	63365
#	76175
#	88085
#	102185
#	115947
#
# Disc length: 1710 seconds
#
# Revision: 1
# Processed by: cddbd v1.5.1PL2 Copyright (c) Steve Scherf et al.
# Submitted via: audiograbber 1.83.01
#
DISCID=6706ac0a
DTITLE=Ray Charles - High Profile
DYEAR=1900
DGENRE=
TTITLE0=Goin' Down Slow
TTITLE1=Can Anyone Ask For More
TTITLE2=Kiss Me Baby
TTITLE3=Rocking Chair Blues
TTITLE4=Sitting On Top Of The World
TTITLE5=Heartbreaker
TTITLE6=If I Give You My Love
TTITLE7=This Love Of Mine
TTITLE8=I'm Gonna Drown Myself
TTITLE9=C. C. Rider
EXTD=
EXTT0=
EXTT1=
EXTT2=
EXTT3=
EXTT4=
EXTT5=
EXTT6=
EXTT7=
EXTT8=
EXTT9=
PLAYORDER=
